HIERARCHY
ROOT Hips
{
  OFFSET 37.5096 101.299 128.543
  CHANNELS 6 Xposition Yposition Zposition Zrotation Xrotation Yrotation
  JOINT RightUpLeg
  {
    OFFSET -8.9458 -8.66707 0.101652
    CHANNELS 3 Zrotation Xrotation Yrotation
    JOINT RightLeg
    {
      OFFSET 0 -44.4227 1.3727
      CHANNELS 3 Zrotation Xrotation Yrotation
      JOINT RightFoot
      {
        OFFSET 0.253549 -42.0924 -1.46059
        CHANNELS 3 Zrotation Xrotation Yrotation
        JOINT RightToes
        {
          OFFSET 0.04 -4.41509 8.4991
          CHANNELS 3 Zrotation Xrotation Yrotation
          End Site
          {
            OFFSET -0.08 -0.137448 9.77979
          }
        }
      }
    }
  }
  JOINT Spine
  {
    OFFSET 0 11.8905 0
    CHANNELS 3 Zrotation Xrotation Yrotation
    JOINT Spine1
    {
      OFFSET 0 25.6574 0.127663
      CHANNELS 3 Zrotation Xrotation Yrotation
      JOINT HEad
      {
        OFFSET 0 8.73416 0.011341
        CHANNELS 3 Zrotation Xrotation Yrotation
        End Site
        {
          OFFSET -0.29 12.7742 2.51395
        }
      }
      JOINT LeftShoulder1
      {
        OFFSET 8.99 -0.362252 -0.22
        CHANNELS 3 Zrotation Xrotation Yrotation
        JOINT LeftArm
        {
          OFFSET 10.2827 -0.00338 0.322123
          CHANNELS 3 Zrotation Xrotation Yrotation
          JOINT LeftForeArm
          {
            OFFSET 32.7669 0.099144 -1.42434
            CHANNELS 3 Zrotation Xrotation Yrotation
            JOINT LeftHand
            {
              OFFSET 27.5643 0.085362 1.02216
              CHANNELS 3 Zrotation Xrotation Yrotation
              End Site
              {
                OFFSET 16.7443 -0.6 1.50291
              }
            }
          }
        }
      }
      JOINT RightShoulder
      {
        OFFSET -8.99 -0.362252 -0.22
        CHANNELS 3 Zrotation Xrotation Yrotation
        JOINT RightArm
        {
          OFFSET -10.2827 -0.00338 0.322123
          CHANNELS 3 Zrotation Xrotation Yrotation
          JOINT RightForeArm
          {
            OFFSET -32.8971 0.099144 -1.42434
            CHANNELS 3 Zrotation Xrotation Yrotation
            JOINT RightHand
            {
              OFFSET -27.4921 0.085362 1.02216
              CHANNELS 3 Zrotation Xrotation Yrotation
              End Site
              {
                OFFSET -16.6312 -0.6 1.50291
              }
            }
          }
        }
      }
    }
  }
  JOINT LeftUpLeg
  {
    OFFSET 8.9458 -8.66707 0.101652
    CHANNELS 3 Zrotation Xrotation Yrotation
    JOINT LeftLeg
    {
      OFFSET 0 -44.4227 1.3727
      CHANNELS 3 Zrotation Xrotation Yrotation
      JOINT LeftFoot
      {
        OFFSET -0.253549 -42.0924 -1.46059
        CHANNELS 3 Zrotation Xrotation Yrotation
        JOINT LeftToes
        {
          OFFSET -0.04 -4.41509 8.4991
          CHANNELS 3 Zrotation Xrotation Yrotation
          End Site
          {
            OFFSET 0.08 -0.047448 9.77979
          }
        }
      }
    }
  }
}
MOTION
Frames:	21
Frame Time:	0.0166667
14.9775 101.796 115.393 3.06317 -3.61868 159.777 -14.1862 -9.67107 1.43655 18.4445 44.1884 -25.5048 7.36659 -15.8229 0.204763 0.0462048 0.000533403 0.662642 -1.99421 5.47031 4.48447 -1.77802 10.6306 8.94197 -6.9306 -11.207 13.1931 -1.19271e-015 6.36111e-015 -7.95139e-016 -128.886 -70.4053 -88.4864 -43.4385 67.8107 -75.385 32.4507 11.1747 -26.4512 15.9503 4.44245 21.2009 95.3849 -46.4288 51.1598 -15.2992 75.8777 145.083 -21.0123 24.9769 -34.7606 18.8304 -26.1717 4.82608 7.8303 34.0736 -25.6127 -18.3274 -6.68905 -0.391037 -1.31371e-009 1.56035e-007 -4.83539e-009 
15.0774 101.272 115.65 2.85866 -3.50336 161.648 -14.4801 -9.89691 1.40641 20.7658 45.5867 -29.0266 7.7131 -18.2125 0.379066 0.0462048 0.000533403 0.662642 -2.57328 5.82093 4.28443 -2.47565 11.2439 8.59127 -6.43611 -13.0071 12.5809 1.19271e-015 0 -7.95139e-016 -134.325 -66.2296 -95.3448 -47.2591 68.7547 -68.7055 33.2361 11.1537 -25.7712 15.5396 4.40305 21.456 99.1296 -46.9059 55.0079 -16.8701 77.3482 145.885 -22.2048 25.3583 -33.6895 18.0594 -27.4259 5.91459 9.79476 34.1606 -28.8012 -19.3079 -6.27462 -0.361854 -1.31371e-009 1.56035e-007 -4.8354e-009 
15.205 100.871 115.969 2.61513 -3.59054 163.716 -14.5607 -10.3819 1.32712 22.0457 46.8736 -30.9238 7.98762 -18.9922 0.44198 0.0462048 0.000533403 0.662642 -3.06563 6.17245 4.16995 -3.27438 11.8741 8.5133 -6.033 -14.7055 11.7588 9.93923e-016 -6.36111e-015 3.97569e-016 -136.757 -62.1544 -98.5686 -51.8673 69.2885 -61.6893 33.8609 11.1075 -25.3447 15.0802 4.34309 21.678 102.657 -47.0146 59.1052 -16.5145 78.839 143.752 -23.73 26.2384 -32.1933 17.1101 -28.821 6.47643 11.6409 33.8827 -31.7193 -20.3768 -5.82529 -0.33113 -1.31371e-009 1.56035e-007 -4.83539e-009 
15.3468 100.595 116.308 2.41531 -3.90069 165.785 -14.387 -11.1345 1.21104 22.1546 48.0921 -31.0404 8.16432 -18.2296 0.377256 0.0462048 0.000533403 0.662642 -3.40399 6.49813 4.16418 -4.04891 12.4733 8.75387 -5.90145 -16.1663 10.7793 -4.96962e-017 -6.36111e-015 1.98785e-016 -137.561 -58.6539 -99.4278 -56.6908 69.3098 -55.1612 34.1516 11.0075 -25.3989 14.4698 4.23446 21.8291 105.91 -46.8547 63.3608 -12.727 80.5077 137.287 -25.5451 27.54 -30.2502 16.1367 -30.1251 6.47653 13.0828 33.3579 -34.1513 -20.9709 -5.94681 -0.394697 -1.31371e-009 1.56035e-007 -4.83539e-009 
15.4961 100.429 116.639 2.30772 -4.38256 167.672 -13.9702 -12.0433 1.06636 21.0777 49.2128 -29.3534 8.321 -16.3367 0.215045 0.0462048 0.000533403 0.662642 -3.58577 6.78462 4.27859 -4.7089 13.0154 9.30557 -6.11236 -17.2978 9.74853 -1.19271e-015 -3.18055e-015 -3.97569e-016 -137.494 -56.0033 -98.6914 -60.7023 68.9178 -50.2362 34.0067 10.8454 -26.0419 13.6443 4.06257 21.8964 109.03 -46.4654 67.7941 -3.00812 82.275 124.051 -27.5128 29.1909 -27.9572 15.2387 -31.1678 6.16738 14.1841 32.6633 -36.231 -20.8245 -6.87145 -0.591755 -1.31371e-009 1.56035e-007 -4.8354e-009 
15.6521 100.341 116.949 2.30799 -4.91997 169.272 -13.3563 -12.9175 0.907713 18.9665 50.1447 -26.0632 8.46407 -13.8344 -0.00715383 0.0462048 0.000533403 0.662642 -3.62853 7.02465 4.50128 -5.2417 13.4831 10.125 -6.55055 -18.0526 8.79033 1.59028e-015 -3.18055e-015 7.95139e-016 -136.78 -54.3219 -96.7946 -63.0318 68.3567 -47.7322 33.4794 10.6456 -27.1728 12.7102 3.85851 21.9164 112.016 -45.8262 72.3584 16.0643 83.5395 100.641 -29.4477 31.1474 -25.5091 14.4666 -31.8755 5.85691 15.1319 31.8003 -38.1213 -20.1057 -8.26877 -0.84973 -1.31371e-009 1.56035e-007 -4.83541e-009 
15.8196 100.301 117.241 2.39356 -5.36955 170.586 -12.6309 -13.538 0.773909 16.1645 50.7592 -21.6567 8.52626 -11.1946 -0.255365 0.0462048 0.000533403 0.662642 -3.56058 7.2159 4.81192 -5.69379 13.8652 11.1668 -6.99151 -18.4267 7.96601 3.97569e-016 3.18055e-015 7.95139e-016 -135.379 -53.5886 -94.0012 -63.4053 67.8743 -47.8098 32.7825 10.4555 -28.4757 11.905 3.67887 21.9171 114.558 -44.9039 76.8412 40.366 83.3328 71.2447 -31.2075 33.4123 -23.1391 13.8047 -32.2724 5.66824 16.0028 30.7927 -39.7774 -19.1641 -9.46186 -1.04608 -1.31371e-009 1.56035e-007 -4.8354e-009 
16.004 100.291 117.516 2.51929 -5.6164 171.676 -11.9014 -13.7311 0.72424 13.1396 50.9727 -16.7934 8.47182 -8.82068 -0.493749 0.0462048 0.000533403 0.662642 -3.41482 7.36533 5.19035 -6.109 14.1695 12.3871 -7.26068 -18.4585 7.26798 -1.59028e-015 0 -0 -133.276 -53.6992 -90.5295 -62.038 67.6153 -50.1348 32.1944 10.3157 -29.5454 11.3935 3.55489 21.8731 116.288 -43.6751 80.9535 55.9856 81.5734 49.9323 -32.6808 36.0239 -21.0857 13.1946 -32.428 5.49276 16.7228 29.745 -40.979 -18.2422 -9.87968 -1.10423 -1.31371e-009 1.56035e-007 -4.8354e-009 
16.2091 100.298 117.761 2.64586 -5.60516 172.593 -11.2448 -13.4279 0.808922 10.2787 50.8278 -12.0176 8.3636 -7.06481 -0.688689 0.0462048 0.000533403 0.662642 -3.21928 7.48767 5.61755 -6.50018 14.4214 13.7421 -7.30992 -18.2241 6.67444 7.95139e-016 -3.18055e-015 1.59028e-015 -130.574 -54.5398 -86.5991 -59.2439 67.614 -54.2518 31.9382 10.2424 -30.0631 11.1737 3.47896 21.7394 117.051 -42.1272 84.4785 60.7198 78.9706 39.1072 -33.7893 39.0103 -19.4782 12.602 -32.3792 5.16855 17.2022 28.7924 -41.5695 -17.4167 -9.41739 -1.03457 -1.31371e-009 1.56035e-007 -4.83539e-009 
16.4409 100.299 117.957 2.74954 -5.34332 173.336 -10.678 -12.6803 1.04646 7.73495 50.4691 -7.58351 8.3131 -6.16515 -0.821205 0.0462048 0.000533403 0.662642 -3.01081 7.59194 6.08862 -6.85227 14.6354 15.2062 -7.19367 -17.8072 6.16521 -2.38542e-015 0 -0 -127.384 -55.998 -82.3366 -55.2279 67.8033 -59.7686 32.1042 10.2341 -29.91 11.1562 3.42694 21.485 116.894 -40.28 87.3235 59.2692 75.8622 34.2569 -34.6039 42.3463 -18.2112 12.0561 -32.1301 4.64664 17.4338 28.0517 -41.5919 -16.684 -8.42097 -0.908796 -1.31371e-009 1.56035e-007 -4.8354e-009 
16.7075 100.281 118.085 2.82148 -4.88087 173.884 -10.1812 -11.5972 1.4207 5.50929 50.0039 -3.57551 8.36561 -6.10728 -0.893912 0.0462048 0.000533403 0.662642 -2.81543 7.66963 6.60219 -7.13881 14.7937 16.7553 -7.00915 -17.2487 5.72588 -1.59028e-015 -3.18055e-015 4.77083e-015 -123.63 -57.9465 -77.632 -50.2199 67.9944 -66.2588 32.5978 10.285 -29.2187 11.261 3.38235 21.1188 115.962 -38.216 89.4972 55.1847 72.2413 31.9677 -35.3982 45.9666 -16.9968 11.6221 -31.6856 3.99857 17.4689 27.5763 -41.2274 -16.0485 -7.34089 -0.798668 -1.31371e-009 1.56035e-007 -4.83541e-009 
17.0118 100.248 118.13 2.8694 -4.26718 174.26 -9.74501 -10.2596 1.88374 3.64312 49.4303 -0.132064 8.4813 -6.59602 -0.927617 0.0462048 0.000533403 0.662642 -2.59464 7.70302 7.121 -7.32427 14.8645 18.3178 -6.85022 -16.5149 5.38178 0 0 -0 -118.956 -60.243 -72.0715 -44.6805 67.9258 -73.1134 33.1625 10.3778 -28.3402 11.4616 3.3495 20.7156 114.42 -36.0438 91.0549 50.3492 68.0535 30.4197 -36.5606 49.802 -15.5047 11.3429 -31.0615 3.3327 17.3737 27.3437 -40.7078 -15.5419 -6.47975 -0.741895 -1.31371e-009 1.56035e-007 -4.83539e-009 
17.3555 100.195 118.095 2.87049 -3.51404 174.52 -9.42252 -8.73576 2.38279 2.24664 48.7765 2.53437 8.65 -7.25118 -0.947854 0.0462048 0.000533403 0.662642 -2.34692 7.68123 7.59615 -7.39819 14.833 19.7853 -6.79008 -15.5173 5.21301 3.18055e-015 0 3.18055e-015 -112.758 -62.7051 -65.0025 -39.3513 67.3987 -79.5351 33.5049 10.4755 -27.6889 11.7695 3.34487 20.3773 112.444 -33.833 92.0667 45.6415 63.2965 28.7186 -38.5281 53.7678 -13.3632 11.1819 -30.2893 2.71413 17.2158 27.3515 -40.2311 -15.19 -6.01711 -0.753187 -1.31371e-009 1.56035e-007 -4.8354e-009 
17.7315 100.115 117.98 2.81624 -2.6138 174.713 -9.24819 -7.07573 2.8722 1.369 48.0917 4.28503 8.94697 -7.76377 -0.972959 0.0462048 0.000533403 0.662642 -2.07028 7.60042 7.99034 -7.36197 14.6985 21.0771 -6.86483 -14.1511 5.31145 -1.59028e-015 0 -3.18055e-015 -104.402 -65.0499 -55.7473 -35.1668 66.405 -84.6245 33.4008 10.5474 -27.5622 12.2006 3.38001 20.162 110.245 -31.6233 92.6308 41.4418 58.0517 26.4255 -41.753 57.7313 -10.1276 11.0937 -29.3944 2.16828 17.06 27.6253 -39.9359 -14.9882 -6.08946 -0.84137 -1.31371e-009 1.56035e-007 -4.8354e-009 
18.1278 99.9969 117.789 2.71568 -1.56715 174.847 -9.2126 -5.34054 3.31779 0.95758 47.4541 5.14363 9.4097 -7.98231 -1.01191 0.0462048 0.000533403 0.662642 -1.76569 7.45407 8.30133 -7.22216 14.4496 22.1839 -7.06681 -12.32 5.71723 1.76556e-031 3.18055e-015 -3.18055e-015 -93.5652 -66.8521 -43.9312 -32.8109 65.1351 -87.7954 32.7314 10.6035 -28.0478 12.757 3.454 20.0582 108.008 -29.4395 92.8295 37.7226 52.4508 23.5092 -46.6081 61.5198 -5.38424 11.0563 -28.3994 1.69032 16.9612 28.2106 -39.8883 -14.911 -6.79801 -1.01406 -1.31371e-009 1.56035e-007 -4.83539e-009 
18.5337 99.8304 117.53 2.58669 -0.389438 174.891 -9.27365 -3.60086 3.69716 0.896582 46.9642 5.27191 9.91775 -7.90951 -1.06974 0.0462048 0.000533403 0.662642 -1.43413 7.2299 8.55218 -6.98427 14.0595 23.1454 -7.36288 -9.96132 6.40171 1.76556e-031 3.18055e-015 -3.18055e-015 -80.7841 -67.595 -30.018 -32.1279 63.795 -89.2685 31.5121 10.696 -29.0124 13.413 3.55468 20.0143 105.83 -27.2572 92.6838 34.2057 46.5899 20.2378 -53.2666 64.9622 1.09978 11.0717 -27.3247 1.24128 16.9262 29.1245 -40.0402 -14.9434 -8.10133 -1.26513 -1.31371e-009 1.56035e-007 -4.8354e-009 
18.9444 99.614 117.221 2.45232 0.903818 174.825 -9.35374 -1.90572 3.99955 0.998369 46.7173 4.91573 10.2841 -7.64314 -1.14539 0.0462048 0.000533403 0.662642 -1.07056 6.92225 8.76509 -6.65435 13.5148 24.0046 -7.70475 -7.09335 7.28052 -1.59028e-015 3.18055e-015 -0 -67.8688 -66.9104 -15.7454 -32.1827 62.4559 -89.9679 29.9317 10.8759 -30.1556 14.1381 3.66767 19.9757 103.758 -25.0374 92.2195 30.6666 40.5492 16.9029 -61.6592 67.9218 9.33174 11.1576 -26.1771 0.745227 16.8798 30.3189 -40.2197 -15.0889 -9.77421 -1.56846 -1.31371e-009 1.56035e-007 -4.83542e-009 
19.3655 99.362 116.892 2.33356 2.31143 174.667 -9.34358 -0.255363 4.23658 1.00334 46.7549 4.3397 10.4349 -7.28813 -1.22923 0.0462048 0.000533403 0.662642 -0.66644 6.54883 8.94191 -6.25071 12.853 24.7739 -8.03101 -3.8558 8.24925 -1.59028e-015 0 -0 -56.9822 -64.8895 -3.23426 -31.9631 61.1088 -90.8757 28.3064 11.1435 -31.1418 14.9272 3.78516 19.9041 101.834 -22.7906 91.5386 27.0534 34.467 13.6791 -71.5487 70.3087 19.1405 11.3266 -24.9331 0.12612 16.7036 31.6767 -40.243 -15.3382 -11.5416 -1.89084 -1.31371e-009 1.56035e-007 -4.8354e-009 
19.8137 99.0966 116.575 2.23247 3.8387 174.472 -9.15237 1.38459 4.4685 0.720966 47.0444 3.69403 10.4125 -6.88547 -1.31233 0.0462048 0.000533403 0.662642 -0.219015 6.15592 9.05374 -5.8058 12.1735 25.4109 -8.2929 -0.506503 9.24603 -7.95139e-016 3.18055e-015 3.18055e-015 -49.0405 -62.0901 6.62504 -31.0193 59.7719 -92.4582 26.9003 11.4526 -31.7738 15.7735 3.90548 19.8005 100.094 -20.522 90.7931 23.4059 28.504 10.6559 -82.5583 72.0925 30.1677 11.5587 -23.5527 -0.613443 16.3393 33.0246 -40.0603 -15.6534 -13.2063 -2.20496 -1.31371e-009 1.56035e-007 -4.8354e-009 
20.3136 98.8291 116.307 2.12168 5.46413 174.326 -8.78056 3.02839 4.79024 0.221125 47.5052 2.90927 10.2497 -6.38287 -1.39664 0.0462048 0.000533403 0.662642 0.253859 5.80311 9.05884 -5.3608 11.5993 25.841 -8.47394 2.63927 10.2396 -7.95139e-016 0 -3.18055e-015 -43.6631 -59.2131 14.2067 -29.5597 58.5336 -94.5649 25.7921 11.7517 -32.0838 16.6379 4.02516 19.6862 98.5748 -18.1639 90.1127 19.7799 22.7414 7.90353 -94.0906 73.3443 41.8194 11.7977 -22.0478 -1.36886 15.8431 34.19 -39.7876 -15.9597 -14.6218 -2.48372 -1.31371e-009 1.56035e-007 -4.83539e-009 
20.8804 98.5418 116.127 1.97823 7.10858 174.326 -8.31811 4.61852 5.23098 -0.181944 48.0782 1.82574 9.934 -5.71976 -1.48777 0.0462048 0.000533403 0.662642 0.736941 5.53367 8.94115 -4.95076 11.2123 26.0287 -8.56683 5.30251 11.148 0 0 -6.36111e-015 -40.1472 -56.7878 20.0968 -28.0485 57.5217 -96.7624 24.9641 11.9952 -32.2431 17.4686 4.12956 19.535 97.3236 -15.6403 89.5691 16.2567 17.1824 5.51174 -105.457 74.2423 53.4562 11.997 -20.5632 -2.00676 15.3493 35.1208 -39.6277 -16.1371 -15.6641 -2.69374 -1.31371e-009 1.56035e-007 -4.83539e-009 
